<?xml version="1.0" encoding="UTF-8"?>
<svg width="256" height="256" viewBox="0 0 256 256" xmlns="http://www.w3.org/2000/svg">
	<!-- Calculator body -->
	<rect x="32" y="16" width="192" height="224" rx="24" fill="#4F8EF7" stroke="#2C3E50" stroke-width="4"/>
	<!-- Display -->
	<rect x="48" y="32" width="160" height="40" rx="8" fill="#e0eafc"/>
	<!-- Buttons grid -->
	<!-- Row 1 -->
	<rect x="56" y="88" width="32" height="32" rx="6" fill="#36d1c4"/>
	<rect x="96" y="88" width="32" height="32" rx="6" fill="#36d1c4"/>
	<rect x="136" y="88" width="32" height="32" rx="6" fill="#36d1c4"/>
	<rect x="176" y="88" width="32" height="32" rx="6" fill="#ffd200"/>
	<!-- Row 2 -->
	<rect x="56" y="128" width="32" height="32" rx="6" fill="#36d1c4"/>
	<rect x="96" y="128" width="32" height="32" rx="6" fill="#36d1c4"/>
	<rect x="136" y="128" width="32" height="32" rx="6" fill="#36d1c4"/>
	<rect x="176" y="128" width="32" height="32" rx="6" fill="#ffd200"/>
	<!-- Row 3 -->
	<rect x="56" y="168" width="32" height="32" rx="6" fill="#36d1c4"/>
	<rect x="96" y="168" width="32" height="32" rx="6" fill="#36d1c4"/>
	<rect x="136" y="168" width="32" height="32" rx="6" fill="#36d1c4"/>
	<rect x="176" y="168" width="32" height="32" rx="6" fill="#ffd200"/>
	<!-- Row 4 -->
	<rect x="56" y="208" width="72" height="32" rx="6" fill="#36d1c4"/>
	<rect x="136" y="208" width="72" height="32" rx="6" fill="#ffd200"/>
	<!-- Button labels (optional, for visual reference) -->
	<text x="72" y="110" font-size="18" font-family="Arial" fill="#fff" text-anchor="middle">7</text>
	<text x="112" y="110" font-size="18" font-family="Arial" fill="#fff" text-anchor="middle">8</text>
	<text x="152" y="110" font-size="18" font-family="Arial" fill="#fff" text-anchor="middle">9</text>
	<text x="192" y="110" font-size="18" font-family="Arial" fill="#fff" text-anchor="middle">÷</text>
	<text x="72" y="150" font-size="18" font-family="Arial" fill="#fff" text-anchor="middle">4</text>
	<text x="112" y="150" font-size="18" font-family="Arial" fill="#fff" text-anchor="middle">5</text>
	<text x="152" y="150" font-size="18" font-family="Arial" fill="#fff" text-anchor="middle">6</text>
	<text x="192" y="150" font-size="18" font-family="Arial" fill="#fff" text-anchor="middle">×</text>
	<text x="72" y="190" font-size="18" font-family="Arial" fill="#fff" text-anchor="middle">1</text>
	<text x="112" y="190" font-size="18" font-family="Arial" fill="#fff" text-anchor="middle">2</text>
	<text x="152" y="190" font-size="18" font-family="Arial" fill="#fff" text-anchor="middle">3</text>
	<text x="192" y="190" font-size="18" font-family="Arial" fill="#fff" text-anchor="middle">−</text>
	<text x="92" y="230" font-size="18" font-family="Arial" fill="#fff" text-anchor="middle">0</text>
	<text x="172" y="230" font-size="18" font-family="Arial" fill="#fff" text-anchor="middle">=</text>
</svg>