<?xml version="1.0" encoding="UTF-8" standalone="no"?>
<!DOCTYPE svg PUBLIC "-//W3C//DTD SVG 1.1//EN" "http://www.w3.org/Graphics/SVG/1.1/DTD/svg11.dtd">
<svg width="456" height="456" viewBox="0 0 456 456" xmlns="http://www.w3.org/2000/svg">
  <!-- Calculator body -->
  <rect x="78" y="48" width="300" height="360" rx="48" fill="#4F8EF7" stroke="#2C3E50" stroke-width="8"/>
  <!-- Display -->
  <rect x="110" y="80" width="236" height="56" rx="12" fill="#e0eafc"/>
  <!-- Buttons grid -->
  <!-- Row 1 -->
  <rect x="120" y="160" width="48" height="48" rx="10" fill="#36d1c4"/>
  <rect x="184" y="160" width="48" height="48" rx="10" fill="#36d1c4"/>
  <rect x="248" y="160" width="48" height="48" rx="10" fill="#36d1c4"/>
  <rect x="312" y="160" width="48" height="48" rx="10" fill="#ffd200"/>
  <!-- Row 2 -->
  <rect x="120" y="224" width="48" height="48" rx="10" fill="#36d1c4"/>
  <rect x="184" y="224" width="48" height="48" rx="10" fill="#36d1c4"/>
  <rect x="248" y="224" width="48" height="48" rx="10" fill="#36d1c4"/>
  <rect x="312" y="224" width="48" height="48" rx="10" fill="#ffd200"/>
  <!-- Row 3 -->
  <rect x="120" y="288" width="48" height="48" rx="10" fill="#36d1c4"/>
  <rect x="184" y="288" width="48" height="48" rx="10" fill="#36d1c4"/>
  <rect x="248" y="288" width="48" height="48" rx="10" fill="#36d1c4"/>
  <rect x="312" y="288" width="48" height="48" rx="10" fill="#ffd200"/>
  <!-- Row 4 -->
  <rect x="120" y="352" width="112" height="48" rx="10" fill="#36d1c4"/>
  <rect x="248" y="352" width="112" height="48" rx="10" fill="#ffd200"/>
  <!-- Optional: Button labels for clarity (can be removed for a cleaner icon) -->
  <text x="144" y="192" font-size="28" font-family="Arial" fill="#fff" text-anchor="middle" font-weight="bold">7</text>
  <text x="208" y="192" font-size="28" font-family="Arial" fill="#fff" text-anchor="middle" font-weight="bold">8</text>
  <text x="272" y="192" font-size="28" font-family="Arial" fill="#fff" text-anchor="middle" font-weight="bold">9</text>
  <text x="336" y="192" font-size="28" font-family="Arial" fill="#fff" text-anchor="middle" font-weight="bold">÷</text>
  <text x="144" y="256" font-size="28" font-family="Arial" fill="#fff" text-anchor="middle" font-weight="bold">4</text>
  <text x="208" y="256" font-size="28" font-family="Arial" fill="#fff" text-anchor="middle" font-weight="bold">5</text>
  <text x="272" y="256" font-size="28" font-family="Arial" fill="#fff" text-anchor="middle" font-weight="bold">6</text>
  <text x="336" y="256" font-size="28" font-family="Arial" fill="#fff" text-anchor="middle" font-weight="bold">×</text>
  <text x="144" y="320" font-size="28" font-family="Arial" fill="#fff" text-anchor="middle" font-weight="bold">1</text>
  <text x="208" y="320" font-size="28" font-family="Arial" fill="#fff" text-anchor="middle" font-weight="bold">2</text>
  <text x="272" y="320" font-size="28" font-family="Arial" fill="#fff" text-anchor="middle" font-weight="bold">3</text>
  <text x="336" y="320" font-size="28" font-family="Arial" fill="#fff" text-anchor="middle" font-weight="bold">−</text>
  <text x="176" y="384" font-size="28" font-family="Arial" fill="#fff" text-anchor="middle" font-weight="bold">0</text>
  <text x="304" y="384" font-size="28" font-family="Arial" fill="#fff" text-anchor="middle" font-weight="bold">=</text>
</svg>
